HIERARCHY
ROOT Hips
{
	OFFSET 0.000000 0.000000 0.000000
	CHANNELS 6 Xposition Yposition Zposition Zrotation Yrotation Xrotation 
	JOINT LowerBack
	{
		OFFSET 0.000000 0.000000 0.000000
		CHANNELS 3 Zrotation Yrotation Xrotation
		JOINT Spine
		{
			OFFSET 0.028270 2.035590 -0.193380
			CHANNELS 3 Zrotation Yrotation Xrotation
			JOINT Spine1
			{
				OFFSET 0.056720 2.048850 -0.042750
				CHANNELS 3 Zrotation Yrotation Xrotation
				JOINT Neck
				{
					OFFSET 0.000000 0.000000 0.000000
					CHANNELS 3 Zrotation Yrotation Xrotation
					JOINT Neck1
					{
						OFFSET -0.054170 1.746240 0.172020
						CHANNELS 3 Zrotation Yrotation Xrotation
						JOINT Head
						{
							OFFSET 0.104070 1.761360 -0.123970
							CHANNELS 3 Zrotation Yrotation Xrotation
							End Site
							{
								OFFSET 0.000000 0.000000 0.000000
							}
						}
					}
				}
				JOINT LeftShoulder
				{
					OFFSET 0.000000 0.000000 0.000000
					CHANNELS 3 Zrotation Yrotation Xrotation
					JOINT LeftArm
					{
						OFFSET 3.362410 1.200890 -0.311210
						CHANNELS 3 Zrotation Yrotation Xrotation
						JOINT LeftForeArm
						{
							OFFSET 4.983000 -0.000000 -0.000000
							CHANNELS 3 Zrotation Yrotation Xrotation
							JOINT LeftHand
							{
								OFFSET 3.483560 -0.000000 -0.000000
								CHANNELS 3 Zrotation Yrotation Xrotation
								JOINT LeftFingerBase
								{
									OFFSET 0.000000 0.000000 0.000000
									CHANNELS 3 Zrotation Yrotation Xrotation
									JOINT LeftHandIndex1
									{
										OFFSET 0.715260 -0.000000 -0.000000
										CHANNELS 3 Zrotation Yrotation Xrotation
										End Site
										{
											OFFSET 0.000000 0.000000 0.000000
										}
									}
								}
								JOINT LThumb
								{
									OFFSET 0.000000 0.000000 0.000000
									CHANNELS 3 Zrotation Yrotation Xrotation
									End Site
									{
										OFFSET 0.000000 0.000000 0.000000
									}
								}
							}
						}
					}
				}
				JOINT RightShoulder
				{
					OFFSET 0.000000 0.000000 0.000000
					CHANNELS 3 Zrotation Yrotation Xrotation
					JOINT RightArm
					{
						OFFSET -3.136600 1.374050 -0.404650
						CHANNELS 3 Zrotation Yrotation Xrotation
						JOINT RightForeArm
						{
							OFFSET -5.241900 -0.000000 -0.000000
							CHANNELS 3 Zrotation Yrotation Xrotation
							JOINT RightHand
							{
								OFFSET -3.444170 -0.000000 -0.000000
								CHANNELS 3 Zrotation Yrotation Xrotation
								JOINT RightFingerBase
								{
									OFFSET 0.000000 0.000000 0.000000
									CHANNELS 3 Zrotation Yrotation Xrotation
									JOINT RightHandIndex1
									{
										OFFSET -0.622530 -0.000000 -0.000000
										CHANNELS 3 Zrotation Yrotation Xrotation
										End Site
										{
											OFFSET 0.000000 0.000000 0.000000
										}
									}
								}
								JOINT RThumb
								{
									OFFSET 0.000000 0.000000 0.000000
									CHANNELS 3 Zrotation Yrotation Xrotation
									End Site
									{
										OFFSET 0.000000 0.000000 0.000000
									}
								}
							}
						}
					}
				}
			}
		}
	}
}
}
MOTION
Frames: 15
Frame Time: 0.008333
3.602867 16.971233 -0.209873 -176.425355 -86.504665 -174.189657 -1.335032 -0.337431 -4.273414 -1.137112 -0.407128 -4.258571 -6.371872 -0.561917 -1.767021 7.596405 -0.442500 -4.156117 -4.131446 -0.354533 0.940920 0.000000 0.000000 0.000000 -4.424213 2.309360 3.796009 -65.987807 10.427912 -21.576228 -3.061633 -5.146914 -0.039276 20.763513 11.760211 2.133494 0.033753 0.131860 0.000000 0.000000 0.000000 0.000000 0.000000 0.000000 0.000000 14.793419 5.312816 -0.135356 74.756567 30.924882 37.153928 1.333768 44.357324 -0.008137 -5.057154 11.477955 -0.530772 0.086971 -0.322568 0.000000 0.000000 0.000000 0.000000 0.000000 0.000000 0.000000 
3.354024 17.021060 -0.263929 163.078310 -87.277982 -153.710310 -2.838488 -0.427822 -4.394724 -1.362850 -0.365365 -4.279231 -6.195484 -0.526111 -1.785935 7.300464 -0.657976 -4.122834 -3.905672 -0.340737 0.954448 0.000000 0.000000 0.000000 -4.717060 2.629143 3.833551 -65.695392 13.324048 -19.725616 -3.477820 -5.583879 -0.040557 18.035545 14.281574 2.256772 -0.004557 0.129997 0.000000 0.000000 0.000000 0.000000 0.000000 0.000000 0.000000 13.602513 5.279789 -0.292569 74.756490 33.233593 39.243156 1.243339 47.069770 -0.010119 -5.296172 11.287140 -0.547937 0.093058 -0.340569 -0.000000 0.000000 0.000000 0.000000 0.000000 0.000000 0.000000 
3.104781 17.064460 -0.313764 152.009386 -87.448913 -142.725447 -3.773356 -0.318842 -4.444219 -1.508841 -0.176228 -4.288718 -6.038442 -0.334299 -1.786081 6.972155 -0.830669 -4.119367 -3.680273 -0.326126 0.958824 0.000000 0.000000 0.000000 -5.007433 3.171357 3.829012 -65.203075 15.768939 -17.629566 -3.892448 -5.481221 -0.042046 14.922381 16.011168 2.098728 -0.041544 0.121528 0.000000 0.000000 0.000000 0.000000 0.000000 0.000000 0.000000 12.366511 5.343444 -0.411441 74.447063 35.619422 40.960886 1.178878 49.796499 -0.011346 -5.320059 10.993698 -0.537518 0.097367 -0.356535 -0.000000 0.000000 0.000000 0.000000 0.000000 0.000000 0.000000 
2.855176 17.100539 -0.357407 147.280849 -87.171939 -138.143539 -4.596236 -0.075247 -4.453275 -1.647298 0.137509 -4.295350 -5.869438 -0.015902 -1.775161 6.595000 -0.930873 -4.134728 -3.455116 -0.310911 0.957722 0.000000 0.000000 0.000000 -5.321052 3.899651 3.782029 -64.509500 17.778316 -15.077328 -4.308876 -4.848297 -0.043107 11.512912 16.884731 1.713266 -0.076178 0.106600 0.000000 0.000000 0.000000 0.000000 0.000000 0.000000 0.000000 11.069787 5.507162 -0.490495 73.795771 38.057008 42.259315 1.128818 52.515148 -0.011887 -5.138700 10.662299 -0.505017 0.098598 -0.371188 -0.000000 0.000000 0.000000 0.000000 0.000000 0.000000 0.000000 
2.605351 17.128728 -0.393510 146.188709 -86.689627 -137.252169 -5.337423 0.231587 -4.421294 -1.770998 0.507865 -4.295285 -5.676643 0.359789 -1.748433 6.158029 -0.950457 -4.172949 -3.230915 -0.295100 0.950017 0.000000 0.000000 0.000000 -5.683272 4.802419 3.699022 -63.651935 19.356380 -11.977905 -4.708055 -3.790197 -0.042943 7.979801 16.841439 1.191295 -0.106227 0.085848 -0.000000 0.000000 0.000000 0.000000 0.000000 0.000000 0.000000 9.701517 5.735326 -0.539628 72.769915 40.535963 43.117933 1.081229 55.205187 -0.011898 -4.798332 10.344800 -0.458738 0.096090 -0.384686 -0.000000 0.000000 0.000000 0.000000 0.000000 0.000000 0.000000 
2.355099 17.148838 -0.421019 147.408950 -86.098599 -138.709375 -5.945948 0.584793 -4.364694 -1.865066 0.913150 -4.292907 -5.456988 0.770206 -1.717183 5.645715 -0.870380 -4.223116 -3.008077 -0.278915 0.939435 0.000000 0.000000 0.000000 -6.138176 5.818005 3.579079 -62.669942 20.521885 -8.124266 -5.072926 -2.255480 -0.040874 4.476096 15.796598 0.635623 -0.130330 0.059754 -0.000000 0.000000 0.000000 0.000000 0.000000 0.000000 0.000000 8.238923 6.024804 -0.563751 71.351016 43.004614 43.491209 1.027071 57.845481 -0.011600 -4.351045 10.071795 -0.405880 0.089625 -0.397553 -0.000000 0.000000 0.000000 0.000000 0.000000 0.000000 0.000000 
2.104052 17.161078 -0.439715 150.089821 -85.425495 -141.644900 -6.392523 0.977160 -4.295382 -1.921376 1.343488 -4.288659 -5.208610 1.205123 -1.679997 5.054700 -0.696838 -4.292610 -2.786892 -0.262315 0.924383 0.000000 0.000000 0.000000 -6.709296 6.954045 3.423258 -61.657162 21.312240 -3.619333 -5.364338 -0.353266 -0.036606 1.302495 13.759892 0.173362 -0.146769 0.029746 -0.000000 0.000000 0.000000 0.000000 0.000000 0.000000 0.000000 6.677368 6.360485 -0.574408 69.543847 45.434408 43.376705 0.960592 60.405151 -0.011304 -3.867348 9.857003 -0.353640 0.079763 -0.410301 -0.000000 0.000000 0.000000 0.000000 0.000000 0.000000 0.000000 
1.852034 17.165944 -0.450267 153.549435 -84.658405 -145.353604 -6.673461 1.374389 -4.201671 -1.942518 1.762570 -4.291854 -4.960989 1.626527 -1.685278 4.425140 -0.450898 -4.400129 -2.559005 -0.244612 0.901262 0.000000 0.000000 0.000000 -7.481663 8.151703 3.260341 -60.633848 23.527274 1.526333 -5.537748 -2.015339 -0.035013 -1.205622 12.537104 -0.116371 -0.155714 -0.004682 -0.000000 0.000000 0.000000 0.000000 0.000000 0.000000 0.000000 5.064821 6.782097 -0.559458 67.402398 47.800502 42.820222 0.891882 62.859539 -0.011062 -3.415255 9.696018 -0.307498 0.068886 -0.423261 -0.000000 0.000000 0.000000 0.000000 0.000000 0.000000 0.000000 
1.598712 17.164246 -0.453643 157.330555 -83.809662 -149.354583 -6.791304 1.789716 -4.113798 -1.933337 2.184467 -4.304049 -4.723476 2.048608 -1.723915 3.764635 -0.143266 -4.526528 -2.326659 -0.226222 0.874857 0.000000 0.000000 0.000000 -8.403133 9.444010 3.050406 -59.283800 26.358176 6.769319 -5.560665 -5.323760 -0.034352 -2.831028 11.537784 -0.272287 -0.155849 -0.041979 -0.000000 0.000000 0.000000 0.000000 0.000000 0.000000 0.000000 3.410938 7.232417 -0.544821 64.958231 50.039908 41.820006 0.811780 65.181360 -0.011374 -3.041393 9.572373 -0.270363 0.056625 -0.436802 -0.000000 0.000000 0.000000 0.000000 0.000000 0.000000 0.000000 
1.343924 17.156873 -0.451197 161.074209 -82.909383 -153.264730 -6.770554 2.224876 -4.065017 -1.898021 2.614601 -4.322464 -4.486349 2.477445 -1.768669 3.081915 0.195169 -4.664468 -2.096142 -0.207702 0.846311 0.000000 0.000000 0.000000 -9.344902 10.857549 2.783416 -57.678254 28.895022 11.553853 -5.453239 -8.264339 -0.032068 -3.533463 10.216923 -0.305886 -0.147782 -0.077493 -0.000000 0.000000 0.000000 0.000000 0.000000 0.000000 0.000000 1.734187 7.643013 -0.561060 62.246759 52.114269 40.414725 0.717812 67.342921 -0.012641 -2.786076 9.466201 -0.244640 0.043035 -0.451089 -0.000000 0.000000 0.000000 0.000000 0.000000 0.000000 0.000000 
1.087914 17.144465 -0.444623 164.473952 -81.999879 -156.770275 -6.652785 2.662473 -4.059142 -1.843453 3.039944 -4.347433 -4.246575 2.900053 -1.823938 2.390240 0.545970 -4.802333 -1.867184 -0.189243 0.818513 0.000000 0.000000 0.000000 -10.218057 12.334141 2.482753 -55.975593 31.105538 15.662765 -5.262876 -10.688658 -0.028187 -3.461659 8.794245 -0.259872 -0.134678 -0.108348 -0.000000 0.000000 0.000000 0.000000 0.000000 0.000000 0.000000 0.040617 7.997243 -0.630013 59.368360 53.953795 38.649243 0.618271 69.327432 -0.014815 -2.635068 9.359727 -0.228232 0.028258 -0.465990 -0.000000 0.000000 0.000000 0.000000 0.000000 0.000000 0.000000 
0.830516 17.127772 -0.435132 167.545887 -81.117579 -159.857294 -6.464104 3.090944 -4.126089 -1.775042 3.451440 -4.381365 -4.006315 3.307136 -1.879969 1.714075 0.865633 -4.938621 -1.644209 -0.171245 0.791720 0.000000 0.000000 0.000000 -10.948367 13.820559 2.173841 -54.330569 32.993654 18.951347 -5.039134 -12.541318 -0.023187 -2.843074 7.441201 -0.180945 -0.120129 -0.133123 -0.000000 0.000000 0.000000 0.000000 0.000000 0.000000 0.000000 -1.621392 8.264284 -0.756605 56.388868 55.552625 36.634000 0.522655 71.125019 -0.017881 -2.602067 9.241630 -0.221836 0.013404 -0.481026 -0.000000 0.000000 0.000000 0.000000 0.000000 0.000000 0.000000 
0.572305 17.107060 -0.424437 170.195293 -80.302946 -162.452365 -6.248248 3.497557 -4.249789 -1.700561 3.840223 -4.421719 -3.764847 3.690031 -1.939021 1.062793 1.139529 -5.062444 -1.425717 -0.153757 0.768556 0.000000 0.000000 0.000000 -11.485565 15.249322 1.886026 -52.854507 34.608854 21.405061 -4.822919 -13.852960 -0.017735 -1.916175 6.263380 -0.102008 -0.107084 -0.151732 -0.000000 0.000000 0.000000 0.000000 0.000000 0.000000 0.000000 -3.250767 8.445005 -0.947553 53.435429 56.865136 34.446228 0.440086 72.736633 -0.021432 -2.629206 9.109231 -0.220255 -0.001723 -0.495566 -0.000000 0.000000 0.000000 0.000000 0.000000 0.000000 0.000000 
0.313501 17.082714 -0.413992 172.444231 -79.587427 -164.590248 -6.040798 3.873121 -4.423630 -1.628209 4.199792 -4.464893 -3.528142 4.042459 -1.989343 0.461320 1.331554 -5.175308 -1.216606 -0.137110 0.748113 0.000000 0.000000 0.000000 -11.794091 16.568460 1.639135 -51.627645 35.994232 22.991210 -4.644116 -14.673241 -0.012493 -0.885784 5.316496 -0.038263 -0.097494 -0.164740 -0.000000 0.000000 0.000000 0.000000 0.000000 0.000000 0.000000 -4.789010 8.520787 -1.186010 50.553468 57.929610 32.198922 0.375697 74.161625 -0.025273 -2.706478 8.967686 -0.222686 -0.016400 -0.509054 -0.000000 0.000000 0.000000 0.000000 0.000000 0.000000 0.000000 
0.054725 17.055019 -0.405176 174.279381 -78.999862 -166.289985 -5.876416 4.209082 -4.624870 -1.564994 4.524445 -4.507125 -3.298558 4.359156 -2.029449 -0.082508 1.437828 -5.272900 -1.016365 -0.121301 0.731217 0.000000 0.000000 0.000000 -11.867157 17.732280 1.447910 -50.679579 37.197363 23.760651 -4.520264 -15.073183 -0.007996 0.086195 4.614994 0.006982 -0.092248 -0.173020 -0.000000 0.000000 0.000000 0.000000 0.000000 0.000000 0.000000 -6.228925 8.501522 -1.458967 47.844202 58.739975 29.966263 0.332171 75.407970 -0.028863 -2.764718 8.827076 -0.223329 -0.031115 -0.521006 -0.000000 0.000000 0.000000 0.000000 0.000000 0.000000 0.000000 
